<?xml version="1.0" encoding="UTF-8"?>
<svg version="1.1" xmlns="http://www.w3.org/2000/svg" width="238" height="239">
<path d="M0 0 C0.73073561 -0.00538554 1.46147123 -0.01077108 2.21435034 -0.01631981 C4.64003468 -0.0305202 7.06516717 -0.02351559 9.49087524 -0.01637268 C11.23935888 -0.02208045 12.98783879 -0.02904628 14.73631287 -0.03717041 C19.46988468 -0.05507302 24.20327082 -0.05393876 28.93686628 -0.04822803 C32.89546651 -0.04513166 36.8540313 -0.05123368 40.81262648 -0.05726677 C50.15543876 -0.07130118 59.49815958 -0.06976002 68.8409729 -0.05836487 C78.46359675 -0.04688743 88.08594177 -0.06095553 97.70852888 -0.08776134 C105.98480637 -0.1099493 114.26099654 -0.11654866 122.53730166 -0.11068493 C127.47389379 -0.10732124 132.41030725 -0.10969121 137.34687424 -0.12693596 C141.99110359 -0.14245217 146.63492138 -0.13839786 151.27913475 -0.11963081 C152.97780087 -0.1159577 154.67649779 -0.11901591 156.37513542 -0.1295166 C170.65581591 -0.21101699 180.77413657 2.14373625 191.3097229 12.38768005 C200.70661755 23.3977755 201.90230985 35.54940493 201.82730103 49.41868591 C201.83273099 51.11510822 201.83985853 52.8115258 201.84854126 54.50793457 C201.86667504 59.08657439 201.85974811 63.66485102 201.84702492 68.24349666 C201.83684376 73.05316895 201.84630488 77.86281173 201.85256958 82.67248535 C201.85983186 90.74809812 201.85029638 98.82356421 201.83120728 106.89915466 C201.80944866 116.21109944 201.8164883 125.52269369 201.8385129 134.83462995 C201.85671629 142.85453616 201.85920093 150.87433739 201.84875822 158.89425761 C201.84254941 163.67324565 201.84161507 168.45206944 201.85490417 173.23104668 C201.86653396 177.72678437 201.85830802 182.22207415 201.83532715 186.7177639 C201.83007756 188.35914622 201.83148883 190.0005668 201.84037781 191.64193344 C201.91424541 206.67819611 199.43722525 218.15692542 188.5831604 229.1337738 C180.78025293 236.27753156 171.54585464 239.62687274 160.97421265 239.65510559 C160.26953834 239.6596367 159.56486403 239.66416782 158.83883595 239.66883624 C156.49540464 239.68141988 154.15220754 239.67986381 151.80874634 239.6782074 C150.12114669 239.68419648 148.43354977 239.6910029 146.74595642 239.69856262 C142.1734494 239.71619244 137.6010173 239.72091676 133.02847958 239.72219419 C130.16778477 239.72361821 127.30710886 239.72789258 124.44641876 239.73318863 C114.45504045 239.75167982 104.46371541 239.75986049 94.47232056 239.75828552 C85.17750306 239.75708478 75.88291802 239.77817619 66.58815932 239.80977285 C58.59299692 239.83597739 50.59791023 239.84665105 42.60270524 239.8453747 C37.83428407 239.84486624 33.06606952 239.85048491 28.29769135 239.8717308 C23.80943287 239.8911834 19.32157663 239.89118996 14.83330345 239.87669754 C13.19310349 239.87461694 11.55287789 239.87926538 9.91272163 239.89141846 C-1.88249258 239.97310409 -12.01040048 238.81642257 -21.6902771 231.38768005 C-22.6596521 230.70705505 -23.6290271 230.02643005 -24.6277771 229.32518005 C-30.53993088 224.30218924 -34.62138228 216.76840402 -36.6902771 209.38768005 C-36.872113 206.9117343 -36.95130286 204.42724674 -36.95770264 201.94464111 C-36.96223375 201.21631992 -36.96676486 200.48799872 -36.97143328 199.73760718 C-36.98404752 197.30815533 -36.98245884 194.87892852 -36.98080444 192.44944763 C-36.98679167 190.70288303 -36.99359767 188.95632107 -37.00115967 187.20976257 C-37.01880993 182.4719129 -37.02351472 177.73413549 -37.02479124 172.99625611 C-37.02621428 170.0328835 -37.03048684 167.06952918 -37.03578568 164.10616112 C-37.05428476 153.75817578 -37.06245669 143.41024193 -37.06088257 133.0622406 C-37.05968213 123.43287337 -37.08076559 113.80373063 -37.11236989 104.17442018 C-37.13857111 95.8947796 -37.14924821 87.61521215 -37.14797175 79.33553046 C-37.14746312 74.39606977 -37.15309088 69.45680851 -37.17432785 64.5173893 C-37.19377436 59.8674557 -37.19379106 55.2179104 -37.17929459 50.56796265 C-37.17721312 48.86809913 -37.18186761 47.1682109 -37.1940155 45.46838951 C-37.28454913 31.9146441 -35.81910718 21.68346638 -26.05355835 11.61424255 C-18.25632034 4.26808443 -10.96620783 0.02050309 0 0 Z " fill="#0579DC" transform="translate(36.690277099609375,-0.3876800537109375)"/>
<path d="M0 0 C1.113395 -0.01226624 1.113395 -0.01226624 2.24928284 -0.02478027 C4.68766502 -0.04944651 7.12599002 -0.06609599 9.56445312 -0.08056641 C10.40096909 -0.08589008 11.23748505 -0.09121376 12.09934998 -0.09669876 C16.52179037 -0.12334052 20.94420332 -0.14274934 25.36669922 -0.15722656 C29.01962163 -0.1705932 32.67198908 -0.19850815 36.32470703 -0.23925781 C40.74723736 -0.28858122 45.16926266 -0.31334555 49.59205627 -0.32045364 C51.27296984 -0.32715951 52.95387241 -0.34236441 54.6346283 -0.36634445 C56.98748525 -0.39801671 59.33839152 -0.3980316 61.69140625 -0.390625 C62.72491966 -0.415233 62.72491966 -0.415233 63.77931213 -0.44033813 C69.32356079 -0.36910711 71.61928302 1.36994148 75.34570312 5.19287109 C77.99617178 13.14427707 76.96726787 22.60266788 77.10139275 30.94726562 C77.15785049 34.40730193 77.23901752 37.86265398 77.38134766 41.3203125 C78.35378583 65.54130043 78.35378583 65.54130043 73.60717773 71.32324219 C70.5346699 74.21662365 67.02635558 76.14546379 63.34570312 78.19287109 C61.1699137 79.9720774 59.19049031 81.86859478 57.15820312 83.81787109 C56.17723543 84.73029597 55.1941641 85.64046448 54.20898438 86.54833984 C53.26410156 87.42103516 52.31921875 88.29373047 51.34570312 89.19287109 C48.73724364 91.54228357 46.12213276 93.883888 43.50195312 96.22021484 C41.29724164 98.15306077 41.29724164 98.15306077 39.43945312 100.44677734 C37.34570312 102.19287109 37.34570312 102.19287109 34.45507812 102.59521484 C31.07479608 102.15781654 28.65281774 101.2459256 25.59570312 99.75537109 C24.65210938 99.30291016 23.70851562 98.85044922 22.73632812 98.38427734 C21.27235132 97.65468106 19.80872433 96.9243817 18.34570312 96.19287109 C8.4541577 95.53343473 2.4027033 102.1576182 -4.65429688 108.19287109 C-6.70892404 109.91102199 -8.77457198 111.61480634 -10.84179688 113.31787109 C-12.13150391 114.40455078 -12.13150391 114.40455078 -13.44726562 115.51318359 C-15.65429687 117.19287109 -15.65429687 117.19287109 -18.65429688 118.19287109 C-18.65429688 81.56287109 -18.65429688 44.93287109 -18.65429688 7.19287109 C-17.99429688 6.86287109 -17.33429687 6.53287109 -16.65429688 6.19287109 C-16.24179687 5.36787109 -15.82929687 4.54287109 -15.40429688 3.69287109 C-13.65429688 1.19287109 -13.65429688 1.19287109 -11.02331543 0.54867554 C-7.34067661 0.15974943 -3.69882052 0.02286877 0 0 Z " fill="#F6FAFD" transform="translate(67.654296875,41.80712890625)"/>
<path d="M0 0 C2 2 2 2 2.375 5.6875 C2.27117148 11.50189718 0.57819453 16.90752212 -1.02734375 22.44921875 C-1.89950147 25.63311983 -2.52378574 28.73667909 -3 32 C-6.3125 32.25 -6.3125 32.25 -10 32 C-11.9375 30.125 -11.9375 30.125 -13 28 C-13 27.34 -13 26.68 -13 26 C-17.58172547 28.42417644 -20.84616993 31.58593022 -24.4375 35.2421875 C-25.04005615 35.84757355 -25.6426123 36.45295959 -26.26342773 37.07669067 C-28.18038878 39.00479323 -30.09027717 40.93973065 -32 42.875 C-33.28338891 44.16843057 -34.56723863 45.46140406 -35.8515625 46.75390625 C-38.21771448 49.13633874 -40.58114394 51.52140092 -42.94140625 53.90966797 C-46.27218994 57.2784349 -49.61263233 60.63711529 -52.9921875 63.95703125 C-56.93500785 67.84259072 -60.68011718 71.82147807 -64.26171875 76.04296875 C-66.41228391 78.46416683 -68.70514853 80.71473932 -71 83 C-72.39169822 84.39976136 -73.78337392 85.79954534 -75.17436218 87.20001221 C-77.28813858 89.32724197 -79.40464936 91.45174293 -81.52124023 93.57617188 C-82.63833449 94.69834011 -83.75453627 95.82139746 -84.86987305 96.9453125 C-86.48773725 98.57525916 -88.10876898 100.20199561 -89.73046875 101.828125 C-90.22943161 102.33224915 -90.72839447 102.83637329 -91.24247742 103.35577393 C-94.53002802 106.64385944 -95.95196464 107.88579102 -100.65625 108.3984375 C-105.8265457 108.33065333 -108.70016948 105.88665709 -112.5 102.625 C-113.13164063 102.11710937 -113.76328125 101.60921875 -114.4140625 101.0859375 C-115.99528342 99.78536618 -117.50479281 98.39860673 -119 97 C-119 96.34 -119 95.68 -119 95 C-122.97300173 96.34760867 -125.42003377 98.04554363 -128.4375 100.9375 C-133.17906474 105.34344194 -138.14019413 109.3387125 -143.26538086 113.28100586 C-145.54685409 115.04239717 -147.76442709 116.7597878 -149.78515625 118.8203125 C-151 120 -151 120 -153 120 C-153.33 120.99 -153.66 121.98 -154 123 C-157.375 123.1875 -157.375 123.1875 -161 123 C-163.32448447 119.51327329 -163.48843865 118.10183421 -163 114 C-161.41796875 111.98046875 -161.41796875 111.98046875 -159.1875 110.1875 C-158.36121094 109.506875 -157.53492188 108.82625 -156.68359375 108.125 C-155.79800781 107.42375 -154.91242188 106.7225 -154 106 C-152.24921388 104.56345755 -150.49923484 103.125931 -148.75 101.6875 C-147.83605469 100.94628906 -146.92210937 100.20507812 -145.98046875 99.44140625 C-142.08331124 96.24910816 -138.24519623 92.98973678 -134.41503906 89.7175293 C-125.60490124 82.21518919 -125.60490124 82.21518919 -119.58203125 82.375 C-113.76484265 83.78309406 -108.29532288 88.33354282 -104.4296875 92.82421875 C-103.95789063 93.21222656 -103.48609375 93.60023438 -103 94 C-99.76770236 93.56923058 -98.12034604 92.4933053 -95.85046387 90.21122742 C-95.25334091 89.61822845 -94.65621796 89.02522949 -94.04100037 88.41426086 C-93.39776321 87.76023788 -92.75452606 87.1062149 -92.09179688 86.43237305 C-91.40513443 85.74614868 -90.71847198 85.05992432 -90.01100159 84.35290527 C-87.73973594 82.07954753 -85.47928835 79.7957395 -83.21875 77.51171875 C-81.6428675 75.93023941 -80.06632011 74.34942234 -78.48913574 72.76924133 C-74.33463059 68.60327458 -70.1892062 64.42838384 -66.04559326 60.25158691 C-61.83396376 56.00936006 -57.61392005 51.77552254 -53.39453125 47.54101562 C-46.57700105 40.69709123 -39.76476073 33.84795317 -32.95899963 26.99232483 C-32.36187668 26.39086639 -31.76475372 25.78940796 -31.14953613 25.16972351 C-30.60120621 24.61498037 -30.05287628 24.06023724 -29.4879303 23.4886837 C-28.22257016 22.22268285 -26.92941904 20.98455735 -25.6307373 19.75276184 C-23.76717343 17.99266502 -23.76717343 17.99266502 -23 15 C-23.78375 14.87625 -24.5675 14.7525 -25.375 14.625 C-28 14 -28 14 -30 12 C-30.4375 9.5625 -30.4375 9.5625 -30 7 C-25.69884353 3.61804229 -20.79994562 2.84869979 -15.5625 1.8125 C-14.31243164 1.54663086 -14.31243164 1.54663086 -13.03710938 1.27539062 C-8.66305508 0.37983326 -4.48403794 -0.42276092 0 0 Z " fill="#F1F6FB" transform="translate(205,70)"/>
<path d="M0 0 C1.14806625 -0.00945648 2.29613251 -0.01891296 3.47898865 -0.02865601 C5.33995934 -0.01954697 5.33995934 -0.01954697 7.23852539 -0.01025391 C9.14898399 -0.01455917 9.14898399 -0.01455917 11.09803772 -0.01895142 C13.79418387 -0.0209949 16.48951673 -0.01694972 19.18554688 -0.00292969 C22.6368767 0.01414554 26.08750578 0.00433174 29.53880978 -0.01364708 C32.83457322 -0.02711344 36.13025279 -0.01767544 39.42602539 -0.01025391 C40.66464828 -0.0163266 41.90327118 -0.02239929 43.1794281 -0.02865601 C44.33064651 -0.01919952 45.48186493 -0.00974304 46.66796875 0 C48.18661781 0.00358017 48.18661781 0.00358017 49.73594666 0.00723267 C52.80901709 0.44688927 54.19038155 1.23412076 56.39868164 3.38818359 C56.89868164 5.88818359 56.89868164 5.88818359 56.39868164 8.38818359 C53.30085787 11.3978181 51.01816066 11.76615597 46.77563477 11.77636719 C45.64766479 11.78582367 44.51969482 11.79528015 43.35754395 11.80502319 C41.53712585 11.79591415 41.53712585 11.79591415 39.67993164 11.78662109 C37.80488953 11.79092636 37.80488953 11.79092636 35.89196777 11.7953186 C33.24886913 11.79736026 30.60660274 11.79333242 27.96362305 11.77929688 C24.58069859 11.76220472 21.19848819 11.77204938 17.8155899 11.79001427 C14.58284507 11.80347864 11.3501858 11.79404379 8.11743164 11.78662109 C6.29701355 11.79573013 6.29701355 11.79573013 4.43981934 11.80502319 C3.31184937 11.79556671 2.18387939 11.78611023 1.02172852 11.77636719 C0.0300769 11.77398041 -0.96157471 11.77159363 -1.98327637 11.76913452 C-5.02706166 11.32623375 -6.41105353 10.52105548 -8.60131836 8.38818359 C-9.03881836 5.88818359 -9.03881836 5.88818359 -8.60131836 3.38818359 C-6.1644746 0.01008828 -4.02063947 0.00948599 0 0 Z " fill="#107ADD" transform="translate(72.601318359375,61.61181640625)"/>
<path d="M0 0 C1.17461792 -0.00630432 2.34923584 -0.01260864 3.55944824 -0.019104 C5.47038269 -0.01303131 5.47038269 -0.01303131 7.41992188 -0.00683594 C8.72191528 -0.00874939 10.02390869 -0.01066284 11.36535645 -0.01263428 C14.12268816 -0.01558485 16.87989036 -0.01129018 19.63720703 -0.00195312 C23.17494261 0.00944153 26.71237474 0.00288168 30.25009918 -0.00909805 C33.61923121 -0.01805488 36.98828121 -0.01178734 40.35742188 -0.00683594 C41.63137817 -0.0108844 42.90533447 -0.01493286 44.21789551 -0.019104 C45.39251343 -0.01279968 46.56713135 -0.00649536 47.77734375 0 C48.81499878 0.00159119 49.85265381 0.00318237 50.92175293 0.00482178 C53.38867188 0.25878906 53.38867188 0.25878906 55.38867188 2.25878906 C55.63867188 5.25878906 55.63867188 5.25878906 55.38867188 8.25878906 C52.73258434 10.9148766 51.48562328 10.51189168 47.77734375 10.51757812 C46.60272583 10.52388245 45.42810791 10.53018677 44.21789551 10.53668213 C42.30696106 10.53060944 42.30696106 10.53060944 40.35742188 10.52441406 C39.05542847 10.52632751 37.75343506 10.52824097 36.4119873 10.5302124 C33.65465559 10.53316297 30.89745339 10.5288683 28.14013672 10.51953125 C24.60240114 10.50813659 21.06496901 10.51469645 17.52724457 10.52667618 C14.15811254 10.535633 10.78906254 10.52936546 7.41992188 10.52441406 C6.14596558 10.52846252 4.87200928 10.53251099 3.55944824 10.53668213 C2.38483032 10.53037781 1.2102124 10.52407349 0 10.51757812 C-1.03765503 10.51598694 -2.07531006 10.51439575 -3.14440918 10.51275635 C-5.61132812 10.25878906 -5.61132812 10.25878906 -7.61132812 8.25878906 C-7.86132812 5.25878906 -7.86132812 5.25878906 -7.61132812 2.25878906 C-4.95524059 -0.39729848 -3.70827953 0.00568644 0 0 Z " fill="#0C77DC" transform="translate(72.611328125,88.7412109375)"/>
<path d="M0 0 C0.66 0 1.32 0 2 0 C2.0467289 22.4354937 2.08199322 44.87097938 2.10362434 67.30651188 C2.11393518 77.72380768 2.12799186 88.14107323 2.15087891 98.55834961 C2.17081865 107.63845971 2.18371784 116.71854791 2.18817699 125.79867929 C2.19078337 130.60614543 2.19690556 135.4135489 2.21146011 140.22099495 C2.22505321 144.74761877 2.22921913 149.27415421 2.22621536 153.80079651 C2.22676475 155.46040769 2.23073189 157.12002189 2.23841095 158.7796154 C2.24839931 161.05000778 2.24595482 163.3200689 2.24050903 165.59046936 C2.24327441 167.49443277 2.24327441 167.49443277 2.24609566 169.43686008 C1.9802351 173.28616963 1.18545115 176.34495631 0 180 C-0.66 179.67 -1.32 179.34 -2 179 C-1.83826325 178.16034132 -1.67652651 177.32068264 -1.50988865 176.45557976 C-0.97403946 172.82406217 -0.8604268 169.38116174 -0.84178162 165.71072388 C-0.83684364 164.99914277 -0.83190566 164.28756166 -0.82681805 163.55441749 C-0.81152277 161.18227665 -0.80310418 158.8101627 -0.79467773 156.43798828 C-0.78509293 154.73268907 -0.7750825 153.0273922 -0.76467896 151.32209778 C-0.73768904 146.70071468 -0.71664752 142.07932143 -0.69667697 137.45790339 C-0.67478087 132.62522701 -0.64740993 127.79258171 -0.62062073 122.95993042 C-0.5707428 113.8122029 -0.52578581 104.66445809 -0.48259836 95.51669681 C-0.43318408 85.10077402 -0.37828151 74.68488241 -0.32291877 64.2689898 C-0.20917396 42.84602227 -0.10231862 21.42302495 0 0 Z " fill="#4E85DF" transform="translate(236,33)"/>
<path d="M0 0 C1.59424805 -0.00386719 1.59424805 -0.00386719 3.22070312 -0.0078125 C4.33509766 -0.00007813 5.44949219 0.00765625 6.59765625 0.015625 C7.70818359 0.00789063 8.81871094 0.00015625 9.96289062 -0.0078125 C11.02701172 -0.00523438 12.09113281 -0.00265625 13.1875 0 C14.65304321 0.00338379 14.65304321 0.00338379 16.14819336 0.00683594 C18.66015625 0.265625 18.66015625 0.265625 21.66015625 2.265625 C22.03515625 5.265625 22.03515625 5.265625 21.66015625 8.265625 C18.28564688 10.51529791 17.13506882 10.51269522 13.1875 10.49609375 C12.12337891 10.49416016 11.05925781 10.49222656 9.96289062 10.49023438 C8.85236328 10.47798828 7.74183594 10.46574219 6.59765625 10.453125 C5.48326172 10.45248047 4.36886719 10.45183594 3.22070312 10.45117188 C-5.05913023 10.40598176 -5.05913023 10.40598176 -7.33984375 9.265625 C-7.46484375 5.890625 -7.46484375 5.890625 -7.33984375 2.265625 C-4.7371529 -0.33706585 -3.62027582 0.00836851 0 0 Z " fill="#0E78DC" transform="translate(71.33984375,114.734375)"/>
<path d="M0 0 C3.93892681 4.82435784 6.99508283 10.10318479 9 16 C8.67 16.99 8.34 17.98 8 19 C7.27296875 17.60587891 7.27296875 17.60587891 6.53125 16.18359375 C2.91742677 9.45402957 -0.28796025 3.89282966 -6.53125 -0.765625 C-7.25828125 -1.37664063 -7.25828125 -1.37664063 -8 -2 C-8 -2.66 -8 -3.32 -8 -4 C-8.721875 -4.28875 -9.44375 -4.5775 -10.1875 -4.875 C-11.88815723 -5.55526289 -13.57580794 -6.27157126 -15.23246288 -7.05290794 C-18.64169492 -8.21959747 -21.48870683 -8.26260619 -25.09309387 -8.2784729 C-25.79565345 -8.2842653 -26.49821303 -8.2900577 -27.22206229 -8.29602563 C-29.56971928 -8.31299357 -31.91717929 -8.31589933 -34.26489258 -8.31884766 C-35.95034261 -8.32814805 -37.63578805 -8.33831689 -39.32122803 -8.34928894 C-43.89309043 -8.37659043 -48.46492201 -8.39173881 -53.03684449 -8.40471697 C-57.81615881 -8.42034682 -62.59541019 -8.44713752 -67.37467957 -8.4727478 C-76.42326903 -8.51953813 -85.47187033 -8.55628103 -94.52051896 -8.58942068 C-104.82277525 -8.62764024 -115.12496833 -8.67705085 -125.42717135 -8.72740483 C-146.61806756 -8.83072848 -167.80900379 -8.9199875 -189 -9 C-189 -9.33 -189 -9.66 -189 -10 C-166.99032298 -10.20084049 -144.98056179 -10.38411841 -122.97056675 -10.54658794 C-112.75055321 -10.62243608 -102.53064523 -10.70399341 -92.31079102 -10.79907227 C-83.40139402 -10.88194491 -74.49198566 -10.95402281 -65.58239883 -11.01323253 C-60.86644638 -11.04494745 -56.15067447 -11.0820034 -51.4348774 -11.13199425 C-46.99201262 -11.17892106 -42.54927256 -11.2113626 -38.10621452 -11.2329216 C-36.47965625 -11.24332632 -34.85312118 -11.25892447 -33.22666931 -11.28024101 C-19.68920312 -11.4528305 -10.0957545 -9.87254905 0 0 Z " fill="#006ED9" transform="translate(228,12)"/>
<path d="M0 0 C0.6875 1.5625 0.6875 1.5625 1 4 C0.07175817 6.3627974 -0.93097061 8.69747517 -2 11 C-3.20206339 14.62403217 -3.13135943 18.10624265 -3.14044189 21.9055481 C-3.14341302 22.60019759 -3.14638414 23.29484709 -3.1494453 24.01054657 C-3.15811588 26.33793519 -3.15963917 28.66527228 -3.16113281 30.99267578 C-3.16576225 32.66174936 -3.17078709 34.33082189 -3.17617798 35.99989319 C-3.18929434 40.53530669 -3.19574579 45.07070539 -3.20018864 49.60613489 C-3.20312141 52.44184092 -3.20722667 55.27754292 -3.21169281 58.11324692 C-3.22536753 66.99154107 -3.23503355 75.86982601 -3.2388947 84.74812996 C-3.24337148 94.98503981 -3.2609018 105.22181587 -3.2898953 115.45868504 C-3.31154381 123.37817981 -3.32160072 131.29763703 -3.32293582 139.21716106 C-3.32398184 143.9436456 -3.32984611 148.67000438 -3.34775543 153.39645767 C-3.36429032 157.84685497 -3.36636543 162.29703272 -3.35761642 166.74744987 C-3.35684887 168.37516685 -3.36115145 170.0028959 -3.37107468 171.63058281 C-3.44040302 183.71755739 -2.33524245 193.47730517 4.6875 203.625 C5.10322266 204.24761719 5.51894531 204.87023437 5.94726562 205.51171875 C6.95358232 207.01541036 7.97513121 208.50889111 9 210 C8.01 210 7.02 210 6 210 C4.0625 207.875 4.0625 207.875 2 205 C1.319375 204.071875 0.63875 203.14375 -0.0625 202.1875 C-3.81863081 196.00805899 -5.37403131 190.60927175 -5.38768005 183.31645203 C-5.39306559 182.58642198 -5.39845113 181.85639193 -5.40399987 181.10423976 C-5.41820019 178.68088923 -5.41119563 176.25809109 -5.40405273 173.8347168 C-5.40976055 172.08785568 -5.41672641 170.34099828 -5.42485046 168.59414673 C-5.44275382 163.86463983 -5.44161851 159.13531876 -5.43590808 154.40578818 C-5.4328114 150.44976754 -5.43891418 146.49378234 -5.44494683 142.53776675 C-5.45898188 133.19970823 -5.45743992 123.86174121 -5.44604492 114.52368164 C-5.43457122 104.90903007 -5.44862915 95.2946577 -5.4754414 85.68004292 C-5.49763866 77.40884529 -5.50422652 69.13773503 -5.49836498 60.86650974 C-5.49500305 55.93379805 -5.49735931 51.0012652 -5.51461601 46.06857872 C-5.53014679 41.42680863 -5.52606192 36.78545003 -5.50731087 32.14369583 C-5.50364156 30.44706231 -5.5066847 28.75039788 -5.51719666 27.05379295 C-5.57013812 17.79726287 -5.28437755 9.46447889 -1 1 C-0.67 0.67 -0.34 0.34 0 0 Z " fill="#F3F9FD" transform="translate(5,18)"/>
<path d="M0 0 C0.66 0.33 1.32 0.66 2 1 C1.25234375 1.72445312 0.5046875 2.44890625 -0.265625 3.1953125 C-1.2606869 4.17159965 -2.25546337 5.14817777 -3.25 6.125 C-3.74113281 6.599375 -4.23226562 7.07375 -4.73828125 7.5625 C-5.22167969 8.03945312 -5.70507812 8.51640625 -6.203125 9.0078125 C-6.86296387 9.65194092 -6.86296387 9.65194092 -7.53613281 10.30908203 C-9.1676522 12.11541007 -9.1676522 12.11541007 -10.84960938 14.84960938 C-13.0570726 18.08361317 -15.42111094 20.64877244 -18.203125 23.3984375 C-18.6857782 23.8782608 -19.1684314 24.35808411 -19.66571045 24.85244751 C-21.18912479 26.36478056 -22.71938455 27.86995915 -24.25 29.375 C-25.29212993 30.40708452 -26.33380105 31.43963254 -27.375 32.47265625 C-29.91138979 34.98714596 -32.45396326 37.49527439 -35 40 C-35.99 39.67 -36.98 39.34 -38 39 C-34.25651042 35.25651042 -30.51302083 31.51302083 -26.76953125 27.76953125 C-26.11525146 27.11460693 -25.46097168 26.45968262 -24.78686523 25.78491211 C-23.37047181 24.37006687 -21.94801639 22.96129063 -20.5234375 21.5546875 C-16.88497214 17.87116374 -13.35293086 14.09002759 -9.8125 10.3125 C-8.38178232 8.78750528 -6.95080493 7.26275415 -5.51953125 5.73828125 C-4.57750854 4.73341675 -4.57750854 4.73341675 -3.61645508 3.70825195 C-2.4297361 2.45414038 -1.22088037 1.22088037 0 0 Z " fill="#3A8BE1" transform="translate(156,129)"/>
<path d="M0 0 C0.6875 1.5625 0.6875 1.5625 1 4 C0.07175817 6.3627974 -0.93097061 8.69747517 -2 11 C-3.22546443 14.68754167 -3.15867795 18.290459 -3.20532227 22.15527344 C-3.21522186 22.86786819 -3.22512146 23.58046295 -3.23532104 24.31465149 C-3.26683139 26.66285922 -3.29165191 29.01108715 -3.31640625 31.359375 C-3.33698483 32.99034136 -3.35798154 34.62130249 -3.37937927 36.2522583 C-3.43450665 40.53969077 -3.48395699 44.82717063 -3.53222656 49.11468506 C-3.58250983 53.49186406 -3.63816024 57.86897447 -3.69335938 62.24609375 C-3.80082675 70.83067112 -3.90229696 79.41530598 -4 88 C-4.33 88 -4.66 88 -5 88 C-5.09305698 78.2808732 -5.16394486 68.56190195 -5.20724869 58.84242535 C-5.22804203 54.32830146 -5.25620695 49.81448444 -5.30175781 45.30053711 C-5.34551249 40.93682185 -5.36919903 36.57340005 -5.37950897 32.20948219 C-5.38684759 30.55224812 -5.40117696 28.89502844 -5.42292023 27.23792076 C-5.54024522 17.91785194 -5.34153186 9.51926491 -1 1 C-0.67 0.67 -0.34 0.34 0 0 Z " fill="#F1F8FC" transform="translate(5,18)"/>
<path d="M0 0 C9.51534178 2.20645606 16.88565969 7.5233253 22.4375 15.5625 C24.68837922 19.26494053 26.60410043 22.89441302 28 27 C27.67 27.99 27.34 28.98 27 30 C26.5153125 29.07058594 26.030625 28.14117188 25.53125 27.18359375 C21.91742677 20.45402957 18.71203975 14.89282966 12.46875 10.234375 C11.9840625 9.82703125 11.499375 9.4196875 11 9 C11 8.34 11 7.68 11 7 C9.948125 6.5978125 9.948125 6.5978125 8.875 6.1875 C5.8350176 4.9318551 2.9272226 3.49764877 0 2 C0 1.34 0 0.68 0 0 Z " fill="#0460D7" transform="translate(209,1)"/>
<path d="M0 0 C0.33 0.99 0.66 1.98 1 3 C-2.59111406 8.54023847 -7.94504548 12.84154382 -13 17 C-17.12578352 20.54414111 -21.22988246 24.07279423 -25 28 C-25.66 27.67 -26.32 27.34 -27 27 C-18.09 18.09 -9.18 9.18 0 0 Z " fill="#3288E0" transform="translate(187,98)"/>
<path d="M0 0 C0.66 0 1.32 0 2 0 C-0.06914812 7.58687644 -6.83503384 12.19139105 -13.203125 16.15234375 C-15 17 -15 17 -18 17 C-18 16.01 -18 15.02 -18 14 C-17.38511719 13.66226563 -16.77023438 13.32453125 -16.13671875 12.9765625 C-15.32847656 12.53054687 -14.52023438 12.08453125 -13.6875 11.625 C-12.88699219 11.18414062 -12.08648437 10.74328125 -11.26171875 10.2890625 C-8.22667952 8.55924739 -6.11380117 7.14483785 -3.9375 4.375 C-3.298125 3.59125 -2.65875 2.8075 -2 2 C-1.34 2 -0.68 2 0 2 C0 1.34 0 0.68 0 0 Z " fill="#1C6ADE" transform="translate(230,219)"/>
<path d="M0 0 C0.33 0 0.66 0 1 0 C1.16822266 0.83917969 1.16822266 0.83917969 1.33984375 1.6953125 C3.44237903 10.24287423 8.08132714 16.8436919 13 24 C12.01 24 11.02 24 10 24 C8.02734375 21.76953125 8.02734375 21.76953125 5.9375 18.8125 C5.24527344 17.84957031 4.55304687 16.88664062 3.83984375 15.89453125 C0.28438967 10.30091878 -0.21954743 6.47664919 0 0 Z " fill="#A6CAEF" transform="translate(1,204)"/>
<path d="M0 0 C0.66 0.33 1.32 0.66 2 1 C-3.94 6.94 -9.88 12.88 -16 19 C-16.66 18.67 -17.32 18.34 -18 18 C-17.54625 17.5875 -17.0925 17.175 -16.625 16.75 C-14.9119597 15.09803069 -14.9119597 15.09803069 -14.125 13 C-13 11 -13 11 -10.875 9.75 C-6.61963113 7.15977547 -3.42943613 3.58261193 0 0 Z " fill="#1176DD" transform="translate(172,115)"/>
<path d="M0 0 C0.66 0.33 1.32 0.66 2 1 C2.1875 3.875 2.1875 3.875 2 7 C-1.39897673 9.26598448 -2.56319173 9.23742654 -6.54296875 9.1953125 C-8.15268555 9.18564453 -8.15268555 9.18564453 -9.79492188 9.17578125 C-11.47424805 9.15064453 -11.47424805 9.15064453 -13.1875 9.125 C-14.31865234 9.11597656 -15.44980469 9.10695313 -16.61523438 9.09765625 C-19.41036828 9.07406862 -22.20507845 9.041153 -25 9 C-25 8.67 -25 8.34 -25 8 C-18.07 8 -11.14 8 -4 8 C-4 7.34 -4 6.68 -4 6 C-2.68 6.33 -1.36 6.66 0 7 C0 4.69 0 2.38 0 0 Z " fill="#408BE1" transform="translate(91,116)"/>
<path d="M0 0 C0.33 0.99 0.66 1.98 1 3 C-0.9115825 4.79736845 -2.82886184 6.58789474 -4.75 8.375 C-5.55824219 9.13683594 -5.55824219 9.13683594 -6.3828125 9.9140625 C-9.09097827 12.4240698 -11.55080159 14.61027443 -15 16 C-10.30233025 10.33870569 -5.25276628 5.14771096 0 0 Z " fill="#61A0E6" transform="translate(175,110)"/>
<path d="M0 0 C-0.1875 1.8125 -0.1875 1.8125 -1 4 C-3.90696599 6.14197494 -5.35521088 7 -9 7 C-9 6.01 -9 5.02 -9 4 C-2.25 0 -2.25 0 0 0 Z " fill="#0D64D7" transform="translate(221,229)"/>
<path d="M0 0 C0.66 0.33 1.32 0.66 2 1 C-0.31 3.64 -2.62 6.28 -5 9 C-6.32 8.67 -7.64 8.34 -9 8 C-6.03 5.36 -3.06 2.72 0 0 Z " fill="#4790E2" transform="translate(63,181)"/>
<path d="M0 0 C0.33 0 0.66 0 1 0 C1.508783 1.55966218 2.00663469 3.12289241 2.5 4.6875 C2.7784375 5.55761719 3.056875 6.42773438 3.34375 7.32421875 C3.99850805 9.99391677 4.11831495 12.26396684 4 15 C-0.03854121 9.9079263 -0.10306393 6.28689984 0 0 Z " fill="#BADBF4" transform="translate(1,204)"/>
<path d="M0 0 C0 0.66 0 1.32 0 2 C-1.75 3.5078125 -1.75 3.5078125 -4 5.125 C-4.7425 5.66382813 -5.485 6.20265625 -6.25 6.7578125 C-6.8275 7.16773438 -7.405 7.57765625 -8 8 C-8.66 7.67 -9.32 7.34 -10 7 C-4.84210526 0 -4.84210526 0 0 0 Z " fill="#498ADD" transform="translate(25,2)"/>
<path d="M0 0 C0.95465783 2.16967689 1.14401212 3.56328793 0.3984375 5.82421875 C-0.35870385 7.5684743 -1.17609198 9.28627131 -2 11 C-2.33 11 -2.66 11 -3 11 C-3.32613618 6.32538149 -2.70582788 3.83325617 0 0 Z " fill="#B4D6F4" transform="translate(5,18)"/>
<path d="M0 0 C0.33 0.99 0.66 1.98 1 3 C-1.97 5.475 -1.97 5.475 -5 8 C-5 5 -5 5 -2.5 2.3125 C-1.675 1.549375 -0.85 0.78625 0 0 Z " fill="#3A88E0" transform="translate(12,12)"/>
<path d="M0 0 C2.475 0.495 2.475 0.495 5 1 C4.67 2.32 4.34 3.64 4 5 C3.01 5 2.02 5 1 5 C0.67 3.35 0.34 1.7 0 0 Z " fill="#4792E2" transform="translate(177,84)"/>
</svg>
